<mxfile host="app.diagrams.net" modified="2023-02-08T11:00:03.154Z" agent="5.0 (Windows NT 10.0; Win64; x64) AppleWebKit/537.36 (KHTML, like Gecko) Chrome/109.0.0.0 Safari/537.36 Edg/109.0.1518.78" etag="RDQStY0P4cXMOzNbfGVM" version="20.8.17" type="github">
  <diagram name="第 1 页" id="UZuFlA6cV8N5J2aLKYFm">
    <mxGraphModel dx="1290" dy="581" grid="1" gridSize="10" guides="1" tooltips="1" connect="1" arrows="1" fold="1" page="1" pageScale="1" pageWidth="827" pageHeight="1169" math="0" shadow="0">
      <root>
        <mxCell id="0" />
        <mxCell id="1" parent="0" />
        <mxCell id="67ApcOa4IBLPhUPyRJdu-1" value="" style="rounded=0;whiteSpace=wrap;html=1;" vertex="1" parent="1">
          <mxGeometry x="260" y="40" width="120" height="60" as="geometry" />
        </mxCell>
      </root>
    </mxGraphModel>
  </diagram>
</mxfile>
